<mxfile host="app.diagrams.net" modified="2024-01-16T03:59:57.451Z" agent="Mozilla/5.0 (Windows NT 10.0; Win64; x64) AppleWebKit/537.36 (KHTML, like Gecko) Chrome/120.0.0.0 Safari/537.36" etag="wV80QwQ3sUtJgW4204rV" version="22.1.18" type="github">
  <diagram name="Halaman-1" id="PyhLYgEe0EpaZa_M19Yk">
    <mxGraphModel dx="1142" dy="614" grid="1" gridSize="10" guides="1" tooltips="1" connect="1" arrows="1" fold="1" page="1" pageScale="1" pageWidth="1100" pageHeight="850" math="0" shadow="0">
      <root>
        <mxCell id="0" />
        <mxCell id="1" parent="0" />
        <mxCell id="EkqmeMS4saRA7s5tsrCb-1" value="frame" style="shape=umlFrame;whiteSpace=wrap;html=1;pointerEvents=0;" vertex="1" parent="1">
          <mxGeometry x="10" width="630" height="580" as="geometry" />
        </mxCell>
        <mxCell id="EkqmeMS4saRA7s5tsrCb-2" value="Dashboard Admin" style="shape=umlLifeline;perimeter=lifelinePerimeter;whiteSpace=wrap;html=1;container=1;dropTarget=0;collapsible=0;recursiveResize=0;outlineConnect=0;portConstraint=eastwest;newEdgeStyle={&quot;curved&quot;:0,&quot;rounded&quot;:0};size=40;" vertex="1" parent="1">
          <mxGeometry x="190" y="10" width="100" height="500" as="geometry" />
        </mxCell>
        <mxCell id="EkqmeMS4saRA7s5tsrCb-6" value="" style="html=1;points=[[0,0,0,0,5],[0,1,0,0,-5],[1,0,0,0,5],[1,1,0,0,-5]];perimeter=orthogonalPerimeter;outlineConnect=0;targetShapes=umlLifeline;portConstraint=eastwest;newEdgeStyle={&quot;curved&quot;:0,&quot;rounded&quot;:0};" vertex="1" parent="EkqmeMS4saRA7s5tsrCb-2">
          <mxGeometry x="45" y="60" width="10" height="420" as="geometry" />
        </mxCell>
        <mxCell id="EkqmeMS4saRA7s5tsrCb-14" value="" style="html=1;points=[[0,0,0,0,5],[0,1,0,0,-5],[1,0,0,0,5],[1,1,0,0,-5]];perimeter=orthogonalPerimeter;outlineConnect=0;targetShapes=umlLifeline;portConstraint=eastwest;newEdgeStyle={&quot;curved&quot;:0,&quot;rounded&quot;:0};" vertex="1" parent="EkqmeMS4saRA7s5tsrCb-2">
          <mxGeometry x="55" y="110" width="10" height="60" as="geometry" />
        </mxCell>
        <mxCell id="EkqmeMS4saRA7s5tsrCb-15" value="Mengisi Field&amp;nbsp;&lt;br&gt;Yang Di Perlukan" style="html=1;align=left;spacingLeft=2;endArrow=block;rounded=0;edgeStyle=orthogonalEdgeStyle;curved=0;rounded=0;" edge="1" target="EkqmeMS4saRA7s5tsrCb-14" parent="EkqmeMS4saRA7s5tsrCb-2" source="EkqmeMS4saRA7s5tsrCb-6">
          <mxGeometry relative="1" as="geometry">
            <mxPoint x="60" y="90" as="sourcePoint" />
            <Array as="points">
              <mxPoint x="90" y="90" />
              <mxPoint x="90" y="130" />
            </Array>
          </mxGeometry>
        </mxCell>
        <mxCell id="EkqmeMS4saRA7s5tsrCb-3" value="" style="shape=umlLifeline;perimeter=lifelinePerimeter;whiteSpace=wrap;html=1;container=1;dropTarget=0;collapsible=0;recursiveResize=0;outlineConnect=0;portConstraint=eastwest;newEdgeStyle={&quot;curved&quot;:0,&quot;rounded&quot;:0};participant=umlActor;" vertex="1" parent="1">
          <mxGeometry x="90" y="10" width="20" height="490" as="geometry" />
        </mxCell>
        <mxCell id="EkqmeMS4saRA7s5tsrCb-4" value="System" style="shape=umlLifeline;perimeter=lifelinePerimeter;whiteSpace=wrap;html=1;container=1;dropTarget=0;collapsible=0;recursiveResize=0;outlineConnect=0;portConstraint=eastwest;newEdgeStyle={&quot;curved&quot;:0,&quot;rounded&quot;:0};" vertex="1" parent="1">
          <mxGeometry x="330" y="10" width="100" height="500" as="geometry" />
        </mxCell>
        <mxCell id="EkqmeMS4saRA7s5tsrCb-8" value="" style="html=1;points=[[0,0,0,0,5],[0,1,0,0,-5],[1,0,0,0,5],[1,1,0,0,-5]];perimeter=orthogonalPerimeter;outlineConnect=0;targetShapes=umlLifeline;portConstraint=eastwest;newEdgeStyle={&quot;curved&quot;:0,&quot;rounded&quot;:0};" vertex="1" parent="EkqmeMS4saRA7s5tsrCb-4">
          <mxGeometry x="45" y="60" width="10" height="420" as="geometry" />
        </mxCell>
        <mxCell id="EkqmeMS4saRA7s5tsrCb-18" value="" style="html=1;points=[[0,0,0,0,5],[0,1,0,0,-5],[1,0,0,0,5],[1,1,0,0,-5]];perimeter=orthogonalPerimeter;outlineConnect=0;targetShapes=umlLifeline;portConstraint=eastwest;newEdgeStyle={&quot;curved&quot;:0,&quot;rounded&quot;:0};" vertex="1" parent="EkqmeMS4saRA7s5tsrCb-4">
          <mxGeometry x="55" y="200" width="10" height="50" as="geometry" />
        </mxCell>
        <mxCell id="EkqmeMS4saRA7s5tsrCb-19" value="Mengecek Apakah&lt;br&gt;ada field Yang &lt;br&gt;Kosong Bila Tidak" style="html=1;align=left;spacingLeft=2;endArrow=block;rounded=0;edgeStyle=orthogonalEdgeStyle;curved=0;rounded=0;" edge="1" target="EkqmeMS4saRA7s5tsrCb-18" parent="EkqmeMS4saRA7s5tsrCb-4" source="EkqmeMS4saRA7s5tsrCb-8">
          <mxGeometry relative="1" as="geometry">
            <mxPoint x="60" y="180" as="sourcePoint" />
            <Array as="points">
              <mxPoint x="90" y="180" />
              <mxPoint x="90" y="220" />
            </Array>
          </mxGeometry>
        </mxCell>
        <mxCell id="EkqmeMS4saRA7s5tsrCb-25" value="" style="html=1;points=[[0,0,0,0,5],[0,1,0,0,-5],[1,0,0,0,5],[1,1,0,0,-5]];perimeter=orthogonalPerimeter;outlineConnect=0;targetShapes=umlLifeline;portConstraint=eastwest;newEdgeStyle={&quot;curved&quot;:0,&quot;rounded&quot;:0};" vertex="1" parent="EkqmeMS4saRA7s5tsrCb-4">
          <mxGeometry x="55" y="390" width="10" height="40" as="geometry" />
        </mxCell>
        <mxCell id="EkqmeMS4saRA7s5tsrCb-26" value="Bila Tidak" style="html=1;align=left;spacingLeft=2;endArrow=block;rounded=0;edgeStyle=orthogonalEdgeStyle;curved=0;rounded=0;" edge="1" target="EkqmeMS4saRA7s5tsrCb-25" parent="EkqmeMS4saRA7s5tsrCb-4" source="EkqmeMS4saRA7s5tsrCb-8">
          <mxGeometry relative="1" as="geometry">
            <mxPoint x="60" y="370" as="sourcePoint" />
            <Array as="points">
              <mxPoint x="90" y="370" />
              <mxPoint x="90" y="410" />
            </Array>
          </mxGeometry>
        </mxCell>
        <mxCell id="EkqmeMS4saRA7s5tsrCb-5" value="Database" style="shape=umlLifeline;perimeter=lifelinePerimeter;whiteSpace=wrap;html=1;container=1;dropTarget=0;collapsible=0;recursiveResize=0;outlineConnect=0;portConstraint=eastwest;newEdgeStyle={&quot;curved&quot;:0,&quot;rounded&quot;:0};" vertex="1" parent="1">
          <mxGeometry x="510" y="10" width="100" height="500" as="geometry" />
        </mxCell>
        <mxCell id="EkqmeMS4saRA7s5tsrCb-20" value="" style="html=1;points=[[0,0,0,0,5],[0,1,0,0,-5],[1,0,0,0,5],[1,1,0,0,-5]];perimeter=orthogonalPerimeter;outlineConnect=0;targetShapes=umlLifeline;portConstraint=eastwest;newEdgeStyle={&quot;curved&quot;:0,&quot;rounded&quot;:0};" vertex="1" parent="EkqmeMS4saRA7s5tsrCb-5">
          <mxGeometry x="50" y="60" width="10" height="420" as="geometry" />
        </mxCell>
        <mxCell id="EkqmeMS4saRA7s5tsrCb-21" value="Menyimpan Data" style="html=1;verticalAlign=bottom;endArrow=block;curved=0;rounded=0;entryX=0;entryY=0;entryDx=0;entryDy=5;" edge="1" parent="EkqmeMS4saRA7s5tsrCb-5" source="EkqmeMS4saRA7s5tsrCb-18">
          <mxGeometry relative="1" as="geometry">
            <mxPoint x="-30" y="240" as="sourcePoint" />
            <mxPoint x="50" y="240.00000000000063" as="targetPoint" />
          </mxGeometry>
        </mxCell>
        <mxCell id="EkqmeMS4saRA7s5tsrCb-22" value="Data Berhasil Di Simpan" style="html=1;verticalAlign=bottom;endArrow=open;dashed=1;endSize=8;curved=0;rounded=0;exitX=0;exitY=1;exitDx=0;exitDy=-5;" edge="1" parent="EkqmeMS4saRA7s5tsrCb-5" target="EkqmeMS4saRA7s5tsrCb-8">
          <mxGeometry relative="1" as="geometry">
            <mxPoint x="-90" y="330" as="targetPoint" />
            <mxPoint x="50" y="329.99999999999943" as="sourcePoint" />
          </mxGeometry>
        </mxCell>
        <mxCell id="EkqmeMS4saRA7s5tsrCb-7" value="User Mengklik Button edit" style="html=1;verticalAlign=bottom;startArrow=oval;endArrow=block;startSize=8;curved=0;rounded=0;entryX=0;entryY=0;entryDx=0;entryDy=5;" edge="1" target="EkqmeMS4saRA7s5tsrCb-6" parent="1" source="EkqmeMS4saRA7s5tsrCb-3">
          <mxGeometry relative="1" as="geometry">
            <mxPoint x="160" y="75" as="sourcePoint" />
          </mxGeometry>
        </mxCell>
        <mxCell id="EkqmeMS4saRA7s5tsrCb-16" value="Mengirim Request&lt;br&gt;Hasil Edit" style="html=1;verticalAlign=bottom;endArrow=block;curved=0;rounded=0;" edge="1" parent="1" source="EkqmeMS4saRA7s5tsrCb-14" target="EkqmeMS4saRA7s5tsrCb-8">
          <mxGeometry width="80" relative="1" as="geometry">
            <mxPoint x="260" y="159.81" as="sourcePoint" />
            <mxPoint x="340" y="159.81" as="targetPoint" />
            <Array as="points">
              <mxPoint x="280" y="170" />
              <mxPoint x="310" y="170" />
            </Array>
          </mxGeometry>
        </mxCell>
        <mxCell id="EkqmeMS4saRA7s5tsrCb-23" value="Tampilkan Pesan&lt;br&gt;Berhasil Di Simpan" style="html=1;verticalAlign=bottom;endArrow=open;dashed=1;endSize=8;curved=0;rounded=0;" edge="1" parent="1" target="EkqmeMS4saRA7s5tsrCb-6">
          <mxGeometry relative="1" as="geometry">
            <mxPoint x="380" y="360.00000000000006" as="sourcePoint" />
            <mxPoint x="250" y="360.00000000000006" as="targetPoint" />
          </mxGeometry>
        </mxCell>
        <mxCell id="EkqmeMS4saRA7s5tsrCb-24" value="Pesan : Data Berhasil &lt;br&gt;Di Simpan" style="html=1;verticalAlign=bottom;endArrow=open;dashed=1;endSize=8;curved=0;rounded=0;" edge="1" parent="1">
          <mxGeometry relative="1" as="geometry">
            <mxPoint x="235" y="380.00411764705854" as="sourcePoint" />
            <mxPoint x="100" y="380" as="targetPoint" />
          </mxGeometry>
        </mxCell>
        <mxCell id="EkqmeMS4saRA7s5tsrCb-27" value="Tampilkan Pesan Barang&lt;br&gt;Gagal Di simpan" style="html=1;verticalAlign=bottom;endArrow=open;dashed=1;endSize=8;curved=0;rounded=0;" edge="1" parent="1" source="EkqmeMS4saRA7s5tsrCb-25" target="EkqmeMS4saRA7s5tsrCb-6">
          <mxGeometry relative="1" as="geometry">
            <mxPoint x="365" y="440" as="sourcePoint" />
            <mxPoint x="285" y="440" as="targetPoint" />
          </mxGeometry>
        </mxCell>
        <mxCell id="EkqmeMS4saRA7s5tsrCb-28" value="Pesan : Data Gagal &lt;br&gt;Di Simpan" style="html=1;verticalAlign=bottom;endArrow=open;dashed=1;endSize=8;curved=0;rounded=0;" edge="1" parent="1">
          <mxGeometry relative="1" as="geometry">
            <mxPoint x="235" y="450" as="sourcePoint" />
            <mxPoint x="99.875" y="450" as="targetPoint" />
          </mxGeometry>
        </mxCell>
      </root>
    </mxGraphModel>
  </diagram>
</mxfile>
